<?xml version="1.0" standalone="no"?>
<!DOCTYPE svg PUBLIC "-//W3C//DTD SVG 20010904//EN"
 "http://www.w3.org/TR/2001/REC-SVG-20010904/DTD/svg10.dtd">
<svg version="1.0" xmlns="http://www.w3.org/2000/svg"
 width="64.000000pt" height="64.000000pt" viewBox="0 0 64.000000 64.000000"
 preserveAspectRatio="xMidYMid meet">
<metadata>
Created by potrace 1.14, written by Peter Selinger 2001-2017
</metadata>
<g transform="translate(0.000000,64.000000) scale(0.100000,-0.100000)"
fill="#000000" stroke="none">
<path d="M25 615 l-25 -24 0 -219 c0 -207 1 -221 21 -246 l20 -26 165 0 c162
0 165 0 189 25 l25 24 0 221 0 221 -25 24 c-24 24 -27 25 -185 25 -158 0 -161
-1 -185 -25z m340 -245 l0 -215 -155 0 -155 0 -3 205 c-1 112 0 210 3 217 3
11 39 13 157 11 l153 -3 0 -215z"/>
<path d="M156 446 c-25 -25 -48 -56 -51 -69 -13 -50 32 -90 76 -67 19 11 20
10 14 -12 -4 -12 -10 -29 -12 -35 -4 -9 5 -13 27 -13 33 0 33 3 12 59 -4 11
-1 11 17 2 43 -23 89 15 75 62 -6 22 -92 117 -105 117 -4 0 -28 -20 -53 -44z"/>
<path d="M440 536 c0 -21 7 -27 43 -36 23 -6 50 -13 60 -16 9 -3 17 -15 17
-27 0 -30 -96 -387 -107 -398 -5 -5 -24 -4 -46 2 -20 5 -76 8 -124 7 l-88 -3
124 -32 c124 -32 153 -32 178 -2 13 17 113 392 113 426 0 44 -18 62 -78 79
-31 8 -65 18 -74 20 -14 4 -18 -1 -18 -20z"/>
</g>
</svg>
